<svg id="Layer_1" height="512" viewBox="0 0 512 512" width="512" xmlns="http://www.w3.org/2000/svg" data-name="Layer 1"><path d="m318.511 336.661a41.569 41.569 0 1 0 41.568-41.661 41.663 41.663 0 0 0 -41.568 41.661zm71.137 0a29.569 29.569 0 1 1 -29.569-29.661 29.649 29.649 0 0 1 29.569 29.661z"/><path d="m359.911 309.787a6 6 0 0 0 -5.96 6.04l.128 19.372a6 6 0 0 0 3.156 5.243l13.439 7.233a6 6 0 0 0 5.687-10.567l-10.305-5.546-.1-15.814a6 6 0 0 0 -6-5.961z"/><path d="m157.373 501h63.651a65.442 65.442 0 0 0 65.368-65.367v-278.611a65.372 65.372 0 0 0 -32.192-56.287l68.778.346a20.766 20.766 0 0 1 20.582 20.756v90.237h-2.249a6 6 0 0 0 -6 6v16.77h-2.2a6 6 0 0 0 -6 6v22.024a6 6 0 0 0 6 6h8.456v10.8a59.922 59.922 0 1 0 37.96.314v-11.114h8.75a6 6 0 0 0 6-6v-22.024a6 6 0 0 0 -6-6h-2.5v-16.77a6 6 0 0 0 -6-6h-1.2l.051-90.7a52.7 52.7 0 0 0 -52.639-52.793h-96.643a17.145 17.145 0 0 0 -13.2-6.211h-4.3v-9.318h20.444a6 6 0 0 0 6-6v-30.052a6 6 0 0 0 -6-6h-83.84a6 6 0 0 0 -6 6v30.052a6 6 0 0 0 6 6h20.444v9.315h-4.3a17.221 17.221 0 0 0 -17.188 17.216v12.831a65.47 65.47 0 0 0 -55.4 64.608v278.611a65.441 65.441 0 0 0 65.367 65.367zm59.108-478h9.807v18.052h-9.807zm-52.226 18.052h-9.807v-18.052h9.807zm174.851 215.816v-10.024h4.818v10.024zm68.888 79.793a47.915 47.915 0 1 1 -47.915-47.936 47.979 47.979 0 0 1 47.915 47.936zm-40.472-67.793v8.332a58.575 58.575 0 0 0 -13.96-.119v-8.217zm-11.6-12v-10.024h9.531v10.024zm21.531-10.024h4.817v10.024h-4.817zm-3.683-12h-26.459v-10.77h26.461zm-140.44-154.266h92.655a40.7 40.7 0 0 1 40.639 40.786l-.051 90.71h-11.013v-90.237a32.792 32.792 0 0 0 -32.522-32.756l-89.708-.451zm-57.075-57.578h28.226v18.052h-28.226zm23.589 30.052v9.315h-18.952v-9.315zm-40.438 26.531a5.208 5.208 0 0 1 5.188-5.216h51.549a5.208 5.208 0 0 1 5.187 5.216v12.08c-.1 0-.2-.008-.306-.008h-61.618zm-55.4 77.439a53.427 53.427 0 0 1 53.367-53.367h63.651a53.428 53.428 0 0 1 53.368 53.367v9.91h-170.386zm0 21.91h170.386v18.033h-170.386zm0 30.033h170.386v171.5h-170.386zm0 183.5h170.386v18.035h-170.386zm0 30.033h170.386v13.135a53.428 53.428 0 0 1 -53.368 53.367h-63.651a53.427 53.427 0 0 1 -53.367-53.367z"/><path d="m128.022 254.4a6 6 0 0 0 -6 6v89.162a6 6 0 0 0 12 0v-89.162a6 6 0 0 0 -6-6z"/><path d="m128.022 229.086a6 6 0 0 0 -6 6v5.146a6 6 0 0 0 12 0v-5.146a6 6 0 0 0 -6-6z"/></svg>